<svg xmlns="http://www.w3.org/2000/svg" width="38" height="38" fill="none"><path fill="#fff" d="M19.004 9.257A9.726 9.726 0 0 0 9.264 19a9.726 9.726 0 0 0 9.74 9.743c5.392 0 9.74-4.35 9.74-9.743a9.726 9.726 0 0 0-9.74-9.743Zm0 16.077c-3.484 0-6.332-2.84-6.332-6.334a6.34 6.34 0 0 1 6.332-6.334A6.34 6.34 0 0 1 25.337 19c0 3.494-2.849 6.334-6.333 6.334ZM31.415 8.859a2.267 2.267 0 0 1-2.272 2.272 2.272 2.272 0 1 1 2.272-2.272Zm6.452 2.306c-.145-3.044-.84-5.74-3.07-7.962-2.22-2.222-4.916-2.917-7.96-3.07-3.136-.178-12.538-.178-15.674 0-3.035.145-5.731.84-7.96 3.062C.972 5.416.285 8.113.132 11.157c-.178 3.137-.178 12.54 0 15.678.145 3.044.84 5.74 3.07 7.962 2.229 2.222 4.916 2.917 7.96 3.07 3.136.178 12.538.178 15.674 0 3.044-.145 5.74-.84 7.96-3.07 2.222-2.222 2.917-4.918 3.07-7.962.178-3.137.178-12.533 0-15.67Zm-4.053 19.036a6.412 6.412 0 0 1-3.611 3.612c-2.5.992-8.435.764-11.199.764-2.763 0-8.706.22-11.198-.764a6.412 6.412 0 0 1-3.612-3.612C3.202 27.7 3.431 21.764 3.431 19c0-2.764-.22-8.708.763-11.201a6.412 6.412 0 0 1 3.612-3.612c2.5-.992 8.435-.763 11.198-.763 2.764 0 8.706-.22 11.199.763a6.412 6.412 0 0 1 3.611 3.612c.992 2.501.763 8.437.763 11.201 0 2.764.23 8.708-.763 11.201Z"/></svg>