<svg width="48" height="39" fill="none" xmlns="http://www.w3.org/2000/svg"><path d="M43.066 9.72c.03.426.03.853.03 1.28 0 13.01-9.898 28-27.99 28C9.534 39 4.357 37.385 0 34.582c.792.091 1.553.122 2.376.122 4.599 0 8.832-1.554 12.213-4.205a9.856 9.856 0 0 1-9.198-6.825c.609.092 1.218.152 1.858.152a10.4 10.4 0 0 0 2.589-.335 9.842 9.842 0 0 1-7.889-9.658v-.122a9.906 9.906 0 0 0 4.447 1.25A9.835 9.835 0 0 1 2.01 6.763a9.77 9.77 0 0 1 1.34-4.966 27.96 27.96 0 0 0 20.285 10.298 11.11 11.11 0 0 1-.244-2.255C23.39 4.418 27.777 0 33.228 0a9.812 9.812 0 0 1 7.188 3.108A19.364 19.364 0 0 0 46.66.73a9.814 9.814 0 0 1-4.325 5.424c1.98-.214 3.899-.762 5.665-1.524a21.152 21.152 0 0 1-4.934 5.088Z" fill="#fff"/></svg>