<svg width="28" height="32" viewBox="0 0 28 32" fill="none" xmlns="http://www.w3.org/2000/svg">
<path id="Vector" d="M28 22.5V1.5C28 0.66875 27.3313 0 26.5 0H6C2.6875 0 0 2.6875 0 6V26C0 29.3125 2.6875 32 6 32H26.5C27.3313 32 28 31.3313 28 30.5V29.5C28 29.0312 27.7813 28.6062 27.4438 28.3312C27.1813 27.3687 27.1813 24.625 27.4438 23.6625C27.7813 23.3938 28 22.9688 28 22.5ZM8 8.375C8 8.16875 8.16875 8 8.375 8H21.625C21.8312 8 22 8.16875 22 8.375V9.625C22 9.83125 21.8312 10 21.625 10H8.375C8.16875 10 8 9.83125 8 9.625V8.375ZM8 12.375C8 12.1688 8.16875 12 8.375 12H21.625C21.8312 12 22 12.1688 22 12.375V13.625C22 13.8312 21.8312 14 21.625 14H8.375C8.16875 14 8 13.8312 8 13.625V12.375ZM23.8375 28H6C4.89375 28 4 27.1063 4 26C4 24.9 4.9 24 6 24H23.8375C23.7187 25.0688 23.7187 26.9312 23.8375 28Z" fill="black"/>
</svg>
