<svg width="25" height="22" viewBox="0 0 25 22" fill="none" xmlns="http://www.w3.org/2000/svg">
<path id="Vector" d="M12.5 0C5.59476 0 0 4.92339 0 11C0 17.0766 5.59476 22 12.5 22C19.4052 22 25 17.0766 25 11C25 4.92339 19.4052 0 12.5 0ZM15.378 15.5286L10.9325 12.6855C10.7762 12.5835 10.6855 12.4238 10.6855 12.2552V4.79032C10.6855 4.49758 10.9577 4.25806 11.2903 4.25806H13.7097C14.0423 4.25806 14.3145 4.49758 14.3145 4.79032V10.898L17.5151 12.9472C17.7873 13.1202 17.8427 13.4528 17.6462 13.6923L16.2248 15.4133C16.0282 15.6484 15.6502 15.7016 15.378 15.5286Z" fill="black"/>
</svg>
