<svg width="38" height="30" viewBox="0 0 38 30" fill="none" xmlns="http://www.w3.org/2000/svg">
<path id="Vector" d="M37.1094 25C37.5992 25 38 25.4219 38 25.9375V29.0625C38 29.5781 37.5992 30 37.1094 30H0.890625C0.400781 30 0 29.5781 0 29.0625V0.9375C0 0.421875 0.400781 0 0.890625 0H3.85938C4.34922 0 4.75 0.421875 4.75 0.9375V25H37.1094ZM27.6613 7.46094L21.375 11.875L15.0441 2.99219C14.6656 2.46094 13.8938 2.5 13.5672 3.07031L7.125 14.375V22.5H35.625L28.9527 7.82812C28.7152 7.32031 28.1066 7.14844 27.6613 7.46094V7.46094Z" fill="black"/>
</svg>
