<svg width="38" height="38" viewBox="0 0 38 38" fill="none" xmlns="http://www.w3.org/2000/svg">
<path id="Vector" d="M19.0042 9.25728C13.6126 9.25728 9.26369 13.6072 9.26369 19C9.26369 24.3928 13.6126 28.7427 19.0042 28.7427C24.3959 28.7427 28.7448 24.3928 28.7448 19C28.7448 13.6072 24.3959 9.25728 19.0042 9.25728ZM19.0042 25.334C15.52 25.334 12.6716 22.4935 12.6716 19C12.6716 15.5065 15.5115 12.666 19.0042 12.666C22.4969 12.666 25.3369 15.5065 25.3369 19C25.3369 22.4935 22.4885 25.334 19.0042 25.334V25.334ZM31.4152 8.85875C31.4152 10.1222 30.3979 11.1312 29.1432 11.1312C27.8801 11.1312 26.8713 10.1137 26.8713 8.85875C26.8713 7.60382 27.8886 6.5863 29.1432 6.5863C30.3979 6.5863 31.4152 7.60382 31.4152 8.85875ZM37.8665 11.1651C37.7224 8.12105 37.0272 5.42463 34.7977 3.20306C32.5766 0.981479 29.8808 0.286176 26.8374 0.133549C23.7007 -0.0445163 14.2993 -0.0445163 11.1626 0.133549C8.12772 0.277697 5.4319 0.973 3.20234 3.19458C0.972783 5.41616 0.286113 8.11257 0.133519 11.1566C-0.0445064 14.294 -0.0445064 23.6975 0.133519 26.8349C0.277635 29.8789 0.972783 32.5754 3.20234 34.7969C5.4319 37.0185 8.11924 37.7138 11.1626 37.8664C14.2993 38.0445 23.7007 38.0445 26.8374 37.8664C29.8808 37.7223 32.5766 37.027 34.7977 34.7969C37.0187 32.5754 37.7139 29.8789 37.8665 26.8349C38.0445 23.6975 38.0445 14.3025 37.8665 11.1651V11.1651ZM33.8143 30.2012C33.153 31.8631 31.873 33.1435 30.2029 33.8133C27.7021 34.8054 21.7679 34.5765 19.0042 34.5765C16.2406 34.5765 10.2979 34.7969 7.80558 33.8133C6.144 33.152 4.86392 31.8716 4.1942 30.2012C3.20234 27.6998 3.43123 21.7643 3.43123 19C3.43123 16.2357 3.21082 10.2918 4.1942 7.79884C4.85544 6.1369 6.13553 4.85652 7.80558 4.18666C10.3064 3.19458 16.2406 3.42352 19.0042 3.42352C21.7679 3.42352 27.7105 3.20306 30.2029 4.18666C31.8645 4.84804 33.1446 6.12842 33.8143 7.79884C34.8061 10.3002 34.5772 16.2357 34.5772 19C34.5772 21.7643 34.8061 27.7082 33.8143 30.2012Z" fill="white"/>
</svg>
