<svg width="20" height="28" viewBox="0 0 20 28" fill="none" xmlns="http://www.w3.org/2000/svg">
<path id="Vector" d="M19.6175 25.5964C19.5479 25.1754 19.5421 25.1809 19.061 25.1809C13.2764 25.1918 12.5809 25.0497 12.5287 25.0387C11.8158 24.9458 11.3347 24.4647 11.3115 23.7759C11.3057 23.6884 11.2999 19.8615 11.2536 16.718C11.2478 16.461 11.3463 16.3681 11.5955 16.308C12.3201 16.144 13.0388 15.9745 13.7575 15.7777C14.0067 15.7066 14.1517 15.7667 14.2444 15.969C14.5052 16.5321 14.7545 17.0952 15.0095 17.6583C15.1022 17.8606 15.0153 17.8989 14.8124 17.8989C14.2328 17.8879 13.6532 17.8934 13.0504 17.8934V19.3695H19.7739C19.6928 18.8501 19.6175 18.38 19.5421 17.8661C19.1364 17.8661 18.7422 17.8879 18.3597 17.8606C17.0497 17.7731 17.299 17.62 13.4909 9.18998C12.9808 8.09112 11.8738 5.79499 11.3753 4.31344C11.1202 3.54806 11.6941 2.92483 12.4708 2.85923C13.5488 2.76629 14.6443 2.77175 15.7282 2.74989C16.9222 2.72802 18.1162 2.72802 19.3103 2.72255C19.4899 2.72255 19.5421 2.64601 19.5595 2.48747C19.629 1.95171 19.716 1.42141 19.7913 0.891116C19.8377 0.601367 19.8841 0.30615 19.9304 0.0109339L0.275592 0C0.0669293 0 -0.0316059 0.0601367 0.0089674 0.289749C0.136483 1.01139 -0.0374021 0.333485 0.379923 2.76629C4.0547 2.76629 4.54158 2.81549 6.28044 2.79362C6.99337 2.78269 8.42502 2.98497 8.4656 4.00182C8.48878 4.62506 8.40184 4.61959 6.57604 8.77995C3.4577 15.8761 3.63738 15.3567 2.67521 17.5818C2.57668 17.8059 2.46655 17.8661 2.2347 17.8661C1.74203 17.8551 1.24935 17.8497 0.762471 17.8715C0.652344 17.877 0.46107 17.9699 0.443681 18.0465C0.356738 18.4893 0.316165 18.9376 0.258203 19.4077H6.88324V17.8989C6.4833 17.8989 4.94152 17.9207 4.83719 17.7403C5.14439 17.0679 5.43999 16.4064 5.74719 15.7339C6.69197 15.9526 7.59617 16.1604 8.50617 16.3736C8.70324 16.4228 8.7728 16.5376 8.7728 16.7453C8.767 19.0907 8.77859 21.4415 8.78439 23.7868C8.78439 24.3444 8.4656 24.831 7.92076 25.0497C7.544 25.1973 7.72948 25.2355 0.884191 25.1809C0.576993 25.1809 0.472662 25.2902 0.443681 25.5526C0.356738 26.2579 0.275592 26.9686 0.153872 27.6738C0.107503 27.9472 0.229222 27.9854 0.46107 27.9854C11.0797 28.0182 -1.31836 27.9854 20 27.9854C19.8551 27.1654 19.745 26.3781 19.6175 25.5964V25.5964ZM9.47993 14.3508C8.70904 14.1212 7.93814 13.9025 7.16725 13.6674C7.05126 13.6224 6.9389 13.5694 6.83107 13.5089C7.82802 11.087 8.81337 8.69248 9.80452 6.28702C10.2392 6.41822 10.2624 6.24328 10.3494 6.28702C10.8884 7.51708 11.3985 9.57266 11.9143 10.8137C12.2969 11.7267 12.6678 12.6451 13.0562 13.5964C12.9834 13.639 12.9079 13.6773 12.8301 13.7112C12.0708 13.9244 11.2999 14.1212 10.5464 14.3508C10.2013 14.4656 9.82501 14.4656 9.47993 14.3508V14.3508Z" fill="black"/>
</svg>
