<svg width="48" height="39" viewBox="0 0 48 39" fill="none" xmlns="http://www.w3.org/2000/svg">
<path id="Vector" d="M43.0661 9.7195C43.0966 10.146 43.0966 10.5727 43.0966 10.9992C43.0966 24.0093 33.1981 39 15.1067 39C9.53301 39 4.35536 37.3851 0 34.5821C0.791909 34.6734 1.55326 34.7039 2.37563 34.7039C6.97456 34.7039 11.2081 33.1501 14.5889 30.4993C10.264 30.4078 6.63959 27.5742 5.39083 23.6742C6.00002 23.7656 6.60912 23.8265 7.24878 23.8265C8.132 23.8265 9.01532 23.7046 9.8376 23.4914C5.32999 22.5773 1.94916 18.6164 1.94916 13.8328V13.711C3.25876 14.4422 4.78174 14.8992 6.39584 14.9601C3.74608 13.1929 2.0101 10.1765 2.0101 6.76399C2.0101 4.9359 2.49732 3.26012 3.35017 1.79761C8.19284 7.76948 15.4721 11.6694 23.6345 12.0961C23.4822 11.3648 23.3908 10.6032 23.3908 9.84142C23.3908 4.41792 27.7766 0 33.2284 0C36.0609 0 38.6192 1.18828 40.4163 3.10781C42.6395 2.68127 44.7715 1.85857 46.6599 0.731255C45.9289 3.01646 44.3756 4.936 42.335 6.15466C44.3148 5.94148 46.2336 5.39293 48 4.63128C46.6601 6.5812 44.9849 8.31785 43.0661 9.7195V9.7195Z" fill="white"/>
</svg>
