<svg width="50" height="50" viewBox="0 0 50 50" fill="none" xmlns="http://www.w3.org/2000/svg">
<g id="youtube">
<path id="Vector" d="M47.7132 13.5489C47.168 11.4959 45.5616 9.87906 43.5219 9.33036C39.8249 8.33331 25.0001 8.33331 25.0001 8.33331C25.0001 8.33331 10.1755 8.33331 6.47833 9.33036C4.43866 9.87915 2.83224 11.4959 2.28701 13.5489C1.29639 17.2699 1.29639 25.0337 1.29639 25.0337C1.29639 25.0337 1.29639 32.7974 2.28701 36.5185C2.83224 38.5714 4.43866 40.1209 6.47833 40.6696C10.1755 41.6666 25.0001 41.6666 25.0001 41.6666C25.0001 41.6666 39.8248 41.6666 43.5219 40.6696C45.5616 40.1209 47.168 38.5714 47.7132 36.5185C48.7039 32.7974 48.7039 25.0337 48.7039 25.0337C48.7039 25.0337 48.7039 17.2699 47.7132 13.5489V13.5489ZM20.1516 32.0825V17.9848L32.5421 25.0338L20.1516 32.0825V32.0825Z" fill="white"/>
</g>
</svg>
